<?xml version="1.0" encoding="UTF-8" standalone="no"?>
<!DOCTYPE svg PUBLIC "-//W3C//DTD SVG 1.1//EN" "http://www.w3.org/Graphics/SVG/1.1/DTD/svg11.dtd">
<svg width="100%" height="100%" viewBox="0 0 4667 1667" version="1.1" xmlns="http://www.w3.org/2000/svg" xmlns:xlink="http://www.w3.org/1999/xlink" xml:space="preserve" xmlns:serif="http://www.serif.com/" style="fill-rule:evenodd;clip-rule:evenodd;stroke-linejoin:round;stroke-miterlimit:2;">
    <g transform="matrix(5.55556,0,0,5.55556,0,0)">
        <path d="M64.76,49.108C48.55,55.893 30.729,75.063 25.101,99.125C17.973,129.612 47.635,142.505 50.068,138.277C52.932,133.31 44.753,131.631 43.07,115.812C40.894,95.382 50.392,72.553 62.346,62.536C64.568,60.675 64.462,63.265 64.462,68.056C64.462,76.624 63.989,153.536 63.989,169.587C63.989,191.307 63.092,198.166 61.481,204.943C59.848,211.811 57.224,216.452 59.212,218.24C61.434,220.239 70.921,215.483 76.413,207.818C82.999,198.625 85.304,187.584 85.718,175.595C86.218,161.141 86.196,138.207 86.218,125.126C86.238,113.128 86.42,77.996 86.007,56.876C85.906,51.696 71.539,46.261 64.759,49.102M640.387,150.755C639.864,162.047 637.365,170.873 634.263,177.098C628.257,189.15 615.795,192.892 610.504,175.567C607.621,166.123 607.486,150.351 609.559,137.172C611.67,123.746 617.562,113.607 627.319,114.521C636.942,115.425 641.447,127.826 640.387,150.755L640.387,150.755ZM478.151,220.811C478.021,239.573 475.068,256.023 468.736,260.801C459.755,267.575 447.684,262.493 450.183,248.803C452.395,236.688 462.854,224.316 478.177,209.198C478.177,209.198 478.209,212.646 478.152,220.811L478.151,220.811ZM475.698,150.646C475.149,160.93 472.483,171.262 469.574,177.099C463.57,189.151 451.018,192.919 445.816,175.568C442.26,163.714 443.111,148.371 444.871,138.704C447.155,126.161 452.69,114.524 462.63,114.524C472.295,114.524 477.061,125.127 475.698,150.647L475.698,150.646ZM381.715,150.488C381.126,161.381 379.001,170.486 375.591,177.099C369.422,189.068 357.216,192.864 351.833,175.568C347.952,163.097 349.273,146.091 350.888,136.905C353.283,123.273 359.282,113.608 368.647,114.524C378.267,115.464 382.943,127.827 381.715,150.489L381.715,150.488ZM812.419,163.211C810.067,163.211 808.994,165.635 808.106,169.715C805.027,183.902 801.79,187.105 797.616,187.105C792.953,187.105 788.763,180.08 787.686,166.018C786.84,154.961 786.976,134.604 788.058,114.355C788.28,110.194 787.132,106.078 775.973,102.024C771.171,100.28 764.191,97.713 760.716,106.102C750.896,129.803 747.054,148.619 746.15,156.263C746.103,156.659 745.618,156.739 745.533,155.815C744.957,149.693 743.67,138.568 743.51,115.194C743.479,110.633 742.512,106.751 737.479,103.573C734.213,101.511 724.295,97.864 720.723,102.203C717.629,105.751 714.046,115.301 710.323,126.622C707.297,135.823 705.189,142.047 705.189,142.047C705.189,142.047 705.229,117.221 705.265,107.804C705.281,104.252 702.844,103.068 702.11,102.853C698.802,101.893 692.286,100.29 689.52,100.29C686.107,100.29 685.271,102.197 685.271,104.977C685.271,105.341 684.733,137.663 684.733,160.263C684.733,161.245 684.733,162.316 684.743,163.454C682.855,173.842 676.734,187.943 670.076,187.943C663.411,187.943 660.266,182.047 660.266,155.104C660.266,139.385 660.738,132.551 660.97,121.182C661.105,114.634 661.365,109.606 661.35,108.465C661.301,104.965 655.25,103.202 652.434,102.55C649.606,101.893 647.147,101.638 645.228,101.747C642.511,101.901 640.589,103.683 640.589,106.134C640.589,107.449 640.604,109.948 640.604,109.948C637.104,104.449 631.476,100.622 627.732,99.513C617.646,96.518 607.121,99.172 599.182,110.28C592.873,119.107 589.07,129.103 587.573,143.466C586.478,153.966 586.835,164.614 588.78,173.619C586.43,183.78 582.067,187.943 577.289,187.943C570.353,187.943 565.325,176.621 565.909,157.042C566.294,144.164 568.871,135.126 571.688,122.051C572.889,116.478 571.913,113.56 569.465,110.763C567.221,108.198 562.438,106.888 555.561,108.499C550.664,109.648 543.661,110.884 537.254,111.833C537.254,111.833 537.641,110.291 537.958,107.572C539.625,93.31 524.128,94.467 519.183,99.022C516.232,101.742 514.223,104.949 513.46,110.716C512.251,119.868 519.715,124.184 519.715,124.184C517.266,135.394 511.263,150.038 505.066,160.625C501.747,166.298 499.207,170.501 495.929,174.969C495.917,173.305 495.908,171.642 495.902,169.986C495.827,146.418 496.141,127.87 496.279,121.184C496.414,114.636 496.676,109.741 496.662,108.6C496.625,106.041 495.13,105.074 492.021,103.85C489.273,102.768 486.022,102.019 482.651,101.758C478.396,101.426 475.832,103.683 475.899,106.351C475.912,106.855 475.912,109.949 475.912,109.949C472.413,104.45 466.784,100.623 463.04,99.514C452.954,96.52 442.429,99.174 434.491,110.281C428.183,119.108 424.051,131.493 422.881,143.358C421.79,154.415 421.992,163.812 423.478,171.728C421.874,179.655 417.263,187.944 412.05,187.944C405.384,187.944 401.592,182.048 401.592,155.105C401.592,139.386 402.064,132.552 402.296,121.184C402.43,114.636 402.69,109.607 402.675,108.467C402.626,104.968 396.575,103.204 393.76,102.551C390.814,101.87 388.27,101.619 386.317,101.763C383.74,101.955 381.929,104.262 381.929,105.983L381.929,109.949C378.429,104.45 372.801,100.623 369.057,99.514C358.971,96.52 348.505,99.217 340.507,110.281C335.292,117.496 331.071,125.494 328.898,143.2C328.27,148.317 327.992,153.108 328.028,157.587C325.949,170.305 316.764,184.963 309.251,184.963C304.854,184.963 300.667,176.435 300.667,158.261C300.667,134.053 302.165,99.585 302.419,96.263C302.419,96.263 311.912,96.101 313.75,96.08C318.485,96.028 322.774,96.14 329.08,95.817C332.244,95.656 335.291,84.304 332.026,82.899C330.547,82.263 320.089,81.705 315.943,81.617C312.457,81.538 302.752,80.82 302.752,80.82C302.752,80.82 303.623,57.942 303.825,55.525C303.997,53.511 301.391,52.474 299.897,51.844C296.263,50.307 293.011,49.572 289.157,48.777C283.833,47.679 281.417,48.753 280.946,53.247C280.235,60.067 279.867,80.043 279.867,80.043C275.96,80.043 262.613,79.279 258.705,79.279C255.073,79.279 251.154,94.896 256.174,95.088C261.951,95.312 272.017,95.505 278.69,95.707C278.69,95.707 278.393,130.743 278.393,141.559C278.393,142.71 278.403,143.818 278.405,144.894C274.732,164.037 261.796,174.377 261.796,174.377C264.574,161.713 258.899,152.203 248.677,144.152C244.911,141.186 237.477,135.57 229.158,129.415C229.158,129.415 233.976,124.667 238.248,115.114C241.276,108.347 241.407,100.603 233.976,98.896C221.698,96.072 211.575,105.089 208.555,114.715C206.216,122.173 207.464,127.706 212.047,133.454C212.381,133.874 212.744,134.304 213.119,134.735C210.347,140.077 206.54,147.269 203.315,152.847C194.365,168.332 187.604,180.58 182.494,180.58C178.409,180.58 178.464,168.145 178.464,156.502C178.464,146.465 179.205,131.375 179.797,115.751C179.993,110.584 177.409,107.641 173.078,104.975C170.447,103.355 164.831,100.17 161.578,100.17C156.709,100.17 142.663,100.833 129.391,139.224C127.718,144.063 124.432,152.88 124.432,152.88L124.715,106.713C124.715,105.63 124.139,104.584 122.819,103.868C120.582,102.654 114.609,100.17 109.297,100.17C106.766,100.17 105.504,101.347 105.504,103.693L105.04,175.922C105.04,181.41 105.183,187.813 105.726,190.613C106.267,193.416 107.142,195.697 108.227,197.054C109.31,198.409 110.563,199.442 112.629,199.868C114.551,200.264 125.079,201.616 125.626,197.593C126.282,192.771 126.307,187.556 131.835,168.106C140.441,137.826 151.662,123.051 156.937,117.804C157.859,116.887 158.912,116.832 158.862,118.333C158.636,124.972 157.844,141.561 157.311,155.654C155.882,193.37 162.744,200.36 172.548,200.36C180.05,200.36 190.624,192.907 201.959,174.04C209.025,162.282 215.887,150.754 220.816,142.445C224.252,145.625 228.107,149.048 231.96,152.704C240.913,161.201 243.852,169.276 241.902,176.935C240.41,182.791 234.792,188.826 224.794,182.96C221.88,181.249 220.636,179.927 217.706,177.998C216.132,176.961 213.728,176.652 212.287,177.737C208.544,180.56 206.403,184.15 205.181,188.594C203.992,192.919 208.323,195.205 212.813,197.205C216.679,198.926 224.988,200.485 230.287,200.663C250.933,201.353 267.473,190.694 278.987,163.198C281.048,186.944 289.819,200.381 305.059,200.381C315.248,200.381 325.463,187.212 329.93,174.256C331.213,179.537 333.111,184.129 335.562,188.013C347.305,206.619 370.086,202.614 381.53,186.815C385.068,181.933 385.606,180.179 385.606,180.179C387.275,195.097 399.289,200.31 406.167,200.31C413.871,200.31 421.826,196.668 427.401,184.117C428.054,185.479 428.767,186.78 429.546,188.013C441.289,206.618 464.07,202.614 475.513,186.815C476.053,186.073 476.521,185.401 476.93,184.798L477.266,194.597C477.266,194.597 470.738,200.585 466.73,204.259C449.094,220.44 435.683,232.716 434.697,247.012C433.43,265.241 448.214,272.015 459.399,272.903C471.276,273.846 481.448,267.284 487.7,258.102C493.199,250.02 496.798,232.624 496.534,215.444C496.429,208.564 496.255,199.816 496.119,190.439C502.318,183.24 509.302,174.142 515.733,163.492C522.741,151.886 530.252,136.3 534.097,124.17C534.097,124.17 540.623,124.226 547.587,123.771C549.814,123.625 550.454,124.08 550.042,125.713C549.545,127.686 541.244,159.704 548.82,181.033C554.006,195.634 565.695,200.332 572.626,200.332C580.739,200.332 588.5,194.205 592.66,185.107C593.161,186.121 593.685,187.103 594.257,188.009C606,206.614 628.701,202.586 640.224,186.811C642.825,183.251 644.3,180.174 644.3,180.174C646.773,195.614 658.78,200.384 665.657,200.384C672.821,200.384 679.62,197.447 685.136,184.395C685.367,190.142 685.73,194.841 686.303,196.322C686.652,197.228 688.688,198.366 690.169,198.915C696.722,201.345 703.406,200.196 705.879,199.696C707.592,199.349 708.928,197.975 709.11,194.426C709.59,185.108 709.296,169.452 712.121,157.817C716.862,138.29 721.285,130.716 723.384,126.966C724.558,124.865 725.883,124.518 725.931,126.742C726.03,131.241 726.254,144.453 728.091,162.204C729.44,175.26 731.242,182.976 732.627,185.419C736.58,192.403 741.462,192.733 745.437,192.733C747.966,192.733 753.254,192.035 752.781,187.59C752.55,185.424 752.954,172.036 757.629,152.798C760.682,140.235 765.772,128.884 767.607,124.734C768.284,123.204 768.599,124.41 768.588,124.645C768.202,133.297 767.334,161.596 770.859,177.073C775.636,198.039 789.458,200.385 794.274,200.385C804.556,200.385 812.965,192.564 815.798,171.984C816.48,167.032 815.47,163.207 812.443,163.207" style="fill:url(#_Linear1);fill-rule:nonzero;"/>
    </g>
    <defs>
        <linearGradient id="_Linear1" x1="0" y1="0" x2="1" y2="0" gradientUnits="userSpaceOnUse" gradientTransform="matrix(308.097,-165.705,165.705,308.097,142.415,239.642)"><stop offset="0" style="stop-color:rgb(255,128,0);stop-opacity:1"/><stop offset="0.65" style="stop-color:rgb(224,114,13);stop-opacity:1"/><stop offset="0.84" style="stop-color:rgb(140,76,48);stop-opacity:1"/><stop offset="1" style="stop-color:rgb(39,30,89);stop-opacity:1"/></linearGradient>
    </defs>
</svg>
